<svg xmlns="http://www.w3.org/2000/svg" width="20" height="20">
  <path style="font-size:11.38508987px;font-style:normal;font-variant:normal;font-weight:400;font-stretch:normal;text-align:start;line-height:125%;letter-spacing:0;word-spacing:0;writing-mode:lr-tb;text-anchor:start;fill:#1a1a1a;fill-opacity:1;stroke:none;font-family:Segoe UI Symbol;-inkscape-font-specification:Segoe UI Symbol" d="M1.732 9.996c0 .756.1 1.484.299 2.184.2.7.477 1.358.835 1.974a8.251 8.251 0 0 0 2.958 2.976c.613.36 1.27.64 1.974.84.703.198 1.433.298 2.189.298s1.484-.1 2.184-.299c.7-.2 1.356-.479 1.965-.84a8.514 8.514 0 0 0 1.675-1.296 8.208 8.208 0 0 0 1.301-1.68c.36-.615.642-1.272.844-1.973.202-.7.303-1.428.303-2.184 0-.756-.1-1.485-.299-2.185a8.382 8.382 0 0 0-.84-1.97 8.236 8.236 0 0 0-1.296-1.67 8.376 8.376 0 0 0-1.679-1.292 8.478 8.478 0 0 0-1.974-.84 7.948 7.948 0 0 0-2.184-.298c-.756 0-1.486.1-2.19.299a8.481 8.481 0 0 0-1.973.835 8.196 8.196 0 0 0-2.958 2.962 8.595 8.595 0 0 0-.835 1.974c-.2.7-.3 1.429-.3 2.185zm2.77.035v-.035l4.025-4.211h2.92l-3.07 3.138h6.673v2.18H8.378l3.068 3.139H8.527zM0 9.987c0-.909.12-1.785.36-2.629.24-.844.58-1.636 1.02-2.378a10.241 10.241 0 0 1 3.6-3.6A9.988 9.988 0 0 1 7.363.36 9.6 9.6 0 0 1 9.996 0a9.6 9.6 0 0 1 2.633.36 10.092 10.092 0 0 1 4.413 2.576c.612.61 1.138 1.285 1.578 2.027.44.741.78 1.535 1.02 2.382.24.847.36 1.728.36 2.642 0 .908-.12 1.786-.36 2.633s-.58 1.64-1.02 2.382c-.44.742-.966 1.418-1.578 2.031a10.138 10.138 0 0 1-4.413 2.602A9.492 9.492 0 0 1 9.996 20a9.6 9.6 0 0 1-2.633-.36 10.028 10.028 0 0 1-4.409-2.589A10.356 10.356 0 0 1 1.38 15.02a9.987 9.987 0 0 1-1.02-2.387A9.68 9.68 0 0 1 0 9.987z"/>
</svg>
