<?xml version="1.0" encoding="utf-8"?>
<!-- Generator: Adobe Illustrator 19.2.0, SVG Export Plug-In . SVG Version: 6.00 Build 0)  -->
<svg version="1.1" id="Layer_1" xmlns="http://www.w3.org/2000/svg" xmlns:xlink="http://www.w3.org/1999/xlink" x="0px" y="0px"
	 viewBox="0 0 1920 1080" style="enable-background:new 0 0 1920 1080;" xml:space="preserve">
<style type="text/css">
	.st0{fill:#333333;}
	.st1{font-family:'MyriadPro-Bold';}
	.st2{font-size:82.1456px;}
	.st3{fill:#F8C09D;}
	.st4{fill:#F6AE8D;}
	.st5{fill:#EF937E;}
	.st6{fill:#E88D6D;}
	.st7{fill:#754C24;}
	.st8{fill:#4D4D4D;}
	.st9{fill:#F69B76;}
	.st10{fill:#F7B28F;}
	.st11{fill:none;stroke:#EF937E;stroke-width:4.5315;stroke-linecap:round;stroke-miterlimit:10;}
</style>
<text transform="matrix(0.9384 0.3455 -0.3455 0.9384 1068.5321 195.4471)" class="st0 st1 st2">?</text>
<text transform="matrix(0.9991 4.360000e-02 -4.360000e-02 0.9991 1041.2585 171.0916)" class="st0 st1 st2">?</text>
<path class="st3" d="M929.6,393.4c0,13.4-10.9,24.5-24.3,24.5h0h-0.2c-13.4,0-24.5-11.1-24.5-24.5v-21.5h49V393.4z"/>
<path class="st4" d="M880.6,387.9c9.5,4.1,19.4,6.3,28.9,6.3c6.6,0,13.4-1.1,20.1-3.1v-15.5h-49V387.9z"/>
<path class="st3" d="M909.5,382.9c-34.9,0-76.8-30.5-76.8-73.2V181.1h154.1v128.5C986.7,352.4,944.3,382.9,909.5,382.9z"/>
<rect x="814.5" y="238.2" class="st0" width="36.3" height="39"/>
<circle class="st3" cx="832.2" cy="275" r="21.9"/>
<path class="st5" d="M827.8,278.1c0-4.3,3.5-7.8,7.8-7.8c1.2,0,2.3,0.3,3.3,0.7c-1.4-2.3-3.8-3.8-6.7-3.8c-4.3,0-7.8,3.5-7.8,7.8
	c0,3.1,1.8,5.8,4.5,7C828.2,280.9,827.8,279.5,827.8,278.1z"/>
<path class="st0" d="M845.3,177.1v0.4h-9.6c-11.7,0-21.2,9.3-21.2,20.9l0-0.2v29.9v24.6h36.3v-11.1c0-7.4,5.7-13.3,13.2-13.3h118
	c14.1,0,25.6-11.6,25.6-25.7v-51.3H871.2C857.1,151.2,845.3,163,845.3,177.1z"/>
<polygon class="st0" points="1001.2,268.7 985.8,257.8 985.8,216.5 1001.2,216.5 "/>
<circle class="st3" cx="988.4" cy="275" r="21.9"/>
<path class="st5" d="M995.6,278.1c0-4.3-3.5-7.8-7.8-7.8c-1.2,0-2.3,0.3-3.3,0.7c1.4-2.3,3.8-3.8,6.7-3.8c4.3,0,7.8,3.5,7.8,7.8
	c0,3.1-1.8,5.8-4.5,7C995.2,280.9,995.6,279.5,995.6,278.1z"/>
<polygon class="st6" points="834.3,540.7 834.3,591.3 986.3,591.3 986.3,537.5 "/>
<path class="st7" d="M826.3,884.3l-32.9,15l20,78.3c0,0,17-7.6,15.4-27.7c-1.6-20.1-16.8-33.4-16.8-33.4l23.1-14.5L826.3,884.3z"/>
<path class="st8" d="M815.5,884.3l24.8,28.3c0,0,120.3-97,134.6-128.8c8.5-18.9-10.5-192.6-10.5-192.6h-41c0,0,15.7,151.7,10,174.2
	C926.3,793.6,815.5,884.3,815.5,884.3z"/>
<path class="st9" d="M881.5,383.7h57.7c26,0,47.2,21.1,47.2,47.2v160.4h-152V430.9C834.3,404.8,855.4,383.7,881.5,383.7z"/>
<path class="st8" d="M911,667.3h-1.3c-41.6,0-75.4-34.2-75.4-75.8v-0.2h152v0.2C986.3,633.1,952.6,667.3,911,667.3z"/>
<path class="st6" d="M911.9,403.3c0,0-11.4,53.8-5.9,70.8c9.4,29.1,71.7,11.9,71.7,11.9l2,33.9l-117.9-10l36.4-111.5L911.9,403.3z"
	/>
<polygon class="st9" points="944.8,384.4 994.5,389.4 991.8,425.5 "/>
<polygon class="st6" points="822.1,392 876.4,383.9 856.7,462.9 "/>
<path class="st7" d="M916,933.3l0,41l-80.8,0.4c0,0,3-18.4,22.9-21.9c19.8-3.6,36.6,7.8,36.6,7.8l2.1-27.3H916z"/>
<polygon class="st8" points="926.3,933.3 885.3,933.3 865.3,591.3 906.3,591.3 "/>
<path class="st9" d="M989,389l2.9,0.1c9.4,0.4,16.7,8.3,16.3,17.7l-4.7,113.7c-0.4,9.4-8.3,16.7-17.7,16.3l-2.9-0.1
	c-9.4-0.4-16.7-8.3-16.3-17.7l4.7-113.7C971.7,395.9,979.6,388.6,989,389z"/>
<path class="st9" d="M856.7,520.8L856.7,520.8c0.1,10.2,8.5,18.3,18.7,18.2l109.9-1.5c10.2-0.1,18.3-8.5,18.2-18.7v0
	c-0.1-10.2-8.5-18.3-18.7-18.2l-109.9,1.5C864.7,502.2,856.6,510.6,856.7,520.8z"/>
<g>
	<path class="st10" d="M864.1,496.2l-10.4-0.1c-4.5,0-8.1,3.5-8.2,8l-0.3,35.1c0,4.5,3.5,8.1,8,8.2l10.4,0.1c4.8,0,8.6-3.8,8.7-8.5
		l0.3-34.1C872.7,500.1,868.8,496.2,864.1,496.2z"/>
	<path class="st10" d="M864.5,541.1L864.5,541.1c0-3.5-2.8-6.4-6.3-6.5l-29.4-0.7c-3.5,0-6.4,2.8-6.5,6.3l0,0c0,3.5,2.8,6.4,6.3,6.5
		l29.4,0.7C861.6,547.4,864.5,544.6,864.5,541.1z"/>
	<path class="st10" d="M858.9,528.2L858.9,528.2c0-3.5-2.8-6.4-6.3-6.5l-29.4-0.3c-3.5,0-6.4,2.8-6.5,6.3l0,0c0,3.5,2.8,6.4,6.3,6.5
		l29.4,0.3C856,534.6,858.9,531.7,858.9,528.2z"/>
	<path class="st10" d="M862.2,515.4L862.2,515.4c0-3.5-2.8-6.4-6.3-6.5l-29.4-0.3c-3.5,0-6.4,2.8-6.5,6.3v0c0,3.5,2.8,6.4,6.3,6.5
		l29.4,0.3C859.3,521.8,862.2,519,862.2,515.4z"/>
	<path class="st10" d="M867,502.7L867,502.7c0-3.5-2.8-6.4-6.3-6.5l-29.4-0.3c-3.5,0-6.4,2.8-6.5,6.3l0,0c0,3.5,2.8,6.4,6.3,6.5
		l29.4,0.3C864.1,509,867,506.2,867,502.7z"/>
</g>
<path class="st9" d="M857.9,535.4l2.8-0.7c9.1-2.3,14.7-11.5,12.4-20.6l-27.6-110.4c-2.3-9.1-11.5-14.7-20.6-12.4l-2.8,0.7
	c-9.1,2.3-14.7,11.5-12.4,20.6L837.3,523C839.6,532.1,848.8,537.7,857.9,535.4z"/>
<path class="st9" d="M849.7,534.9L849.7,534.9c9.8,2.8,20-2.9,22.8-12.7l31.5-113.9l-35.5-10.1L837,512.1
	C834.3,521.9,839.9,532.1,849.7,534.9z"/>
<g>
	<path class="st10" d="M882.6,383.1L882.6,383.1c3.1-1.6,4.4-5.5,2.8-8.6L872,348.3c-1.6-3.1-5.5-4.4-8.6-2.8l0,0
		c-3.1,1.6-4.4,5.5-2.8,8.6l13.4,26.1C875.6,383.5,879.5,384.7,882.6,383.1z"/>
	<path class="st10" d="M915.3,400.5l6.2-8.3c2.7-3.6,2-8.6-1.6-11.3l-28-21.1c-3.6-2.7-8.6-2-11.3,1.6l-6.2,8.3
		c-2.9,3.8-2.1,9.2,1.7,12l27.2,20.5C907.1,405.1,912.5,404.3,915.3,400.5z"/>
	<path class="st10" d="M879,374.2L879,374.2c2.8,2.1,6.8,1.6,9-1.3l35.8-47.4c2.1-2.8,1.6-6.8-1.3-9l0,0c-2.8-2.1-6.8-1.6-9,1.3
		l-35.8,47.4C875.6,368.1,876.2,372.1,879,374.2z"/>
	<path class="st10" d="M892.7,377.3L892.7,377.3c2.8,2.1,6.8,1.6,9-1.3l17.7-23.5c2.1-2.8,1.6-6.8-1.3-9l0,0c-2.8-2.1-6.8-1.6-9,1.3
		l-17.7,23.5C889.3,371.2,889.9,375.2,892.7,377.3z"/>
	<path class="st10" d="M901,387.6L901,387.6c2.8,2.1,6.8,1.6,9-1.3l17.7-23.5c2.1-2.8,1.6-6.8-1.3-9l0,0c-2.8-2.1-6.8-1.6-9,1.3
		l-17.7,23.5C897.6,381.5,898.2,385.5,901,387.6z"/>
	<path class="st10" d="M908.4,399.1L908.4,399.1c2.8,2.1,6.8,1.6,9-1.3l17.7-23.5c2.1-2.8,1.6-6.8-1.3-9l0,0c-2.8-2.1-6.8-1.6-9,1.3
		l-17.7,23.5C905,392.9,905.5,396.9,908.4,399.1z"/>
</g>
<polygon class="st10" points="875,380.3 871.9,399.2 901.4,407.6 903.8,402.6 "/>
<path class="st11" d="M946,334.1c-6.9-8.1-15.7-12-27.5-12c-11.8,0-24.2,7.4-27.5,12"/>
<path class="st5" d="M911.5,286.7v15.9c0,0.7,0.9,1.3,1.6,1.3h9.4c2.6,0,4-3,2.3-4.9l-10.9-13C913.2,285,911.5,285.5,911.5,286.7z"
	/>
<ellipse class="st0" cx="884.6" cy="277.6" rx="5" ry="8.8"/>
<ellipse class="st0" cx="948.1" cy="277.6" rx="5" ry="8.8"/>
</svg>
